<svg xmlns="http://www.w3.org/2000/svg" viewBox="0 0 64 64" role="img" aria-label="JSONF">
  <defs>
    <linearGradient id="frame" x1="10" x2="56" y1="8" y2="58" gradientUnits="userSpaceOnUse">
      <stop stop-color="#7EE4D6" />
      <stop offset=".5" stop-color="#0B8078" />
      <stop offset="1" stop-color="#4F6FEA" />
    </linearGradient>
    <linearGradient id="mark" x1="16" x2="50" y1="18" y2="46" gradientUnits="userSpaceOnUse">
      <stop stop-color="#0B8078" />
      <stop offset="1" stop-color="#4F6FEA" />
    </linearGradient>
    <filter id="shadow" x="0" y="0" width="64" height="64" color-interpolation-filters="sRGB" filterUnits="userSpaceOnUse">
      <feDropShadow dx="0" dy="8" stdDeviation="7" flood-color="#162733" flood-opacity=".18" />
    </filter>
  </defs>
  <rect x="7" y="7" width="50" height="50" rx="14" fill="#F9FCFD" filter="url(#shadow)" />
  <rect x="7.75" y="7.75" width="48.5" height="48.5" rx="13.25" fill="none" stroke="url(#frame)" stroke-opacity=".42" stroke-width="1.5" />
  <path d="M24.6 20.5c-4.2 0-6.1 2.1-6.1 6v3.2c0 1.5-.7 2.3-2.2 2.3 1.5 0 2.2.8 2.2 2.3v3.2c0 3.9 1.9 6 6.1 6" fill="none" stroke="url(#mark)" stroke-linecap="round" stroke-linejoin="round" stroke-width="4" />
  <path d="M39.4 20.5c4.2 0 6.1 2.1 6.1 6v3.2c0 1.5.7 2.3 2.2 2.3-1.5 0-2.2.8-2.2 2.3v3.2c0 3.9-1.9 6-6.1 6" fill="none" stroke="url(#mark)" stroke-linecap="round" stroke-linejoin="round" stroke-width="4" />
  <circle cx="32" cy="32" r="3.2" fill="#4F6FEA" />
</svg>
