<svg xmlns="http://www.w3.org/2000/svg" viewBox="0 0 64 64" role="img" aria-label="JSONF">
  <defs>
    <linearGradient id="surface" x1="8" x2="58" y1="6" y2="60" gradientUnits="userSpaceOnUse">
      <stop stop-color="#063B49" />
      <stop offset=".52" stop-color="#0C706E" />
      <stop offset="1" stop-color="#394CCB" />
    </linearGradient>
    <linearGradient id="edge" x1="9" x2="55" y1="7" y2="58" gradientUnits="userSpaceOnUse">
      <stop stop-color="#A9FFF0" stop-opacity=".9" />
      <stop offset=".45" stop-color="#6DE4D5" stop-opacity=".28" />
      <stop offset="1" stop-color="#A8B7FF" stop-opacity=".72" />
    </linearGradient>
    <linearGradient id="mark" x1="17" x2="48" y1="18" y2="47" gradientUnits="userSpaceOnUse">
      <stop stop-color="#C9FFF6" />
      <stop offset=".52" stop-color="#71F0DC" />
      <stop offset="1" stop-color="#BCC7FF" />
    </linearGradient>
    <radialGradient id="glow" cx="0" cy="0" r="1" gradientTransform="translate(20 14) rotate(48) scale(46)" gradientUnits="userSpaceOnUse">
      <stop stop-color="#A5FFF0" stop-opacity=".3" />
      <stop offset="1" stop-color="#A5FFF0" stop-opacity="0" />
    </radialGradient>
    <filter id="shadow" x="-8" y="-6" width="80" height="82" color-interpolation-filters="sRGB" filterUnits="userSpaceOnUse">
      <feDropShadow dx="0" dy="5" stdDeviation="5" flood-color="#071B2A" flood-opacity=".34" />
    </filter>
  </defs>
  <g filter="url(#shadow)">
    <rect x="5" y="5" width="54" height="54" rx="16" fill="url(#surface)" />
    <rect x="5" y="5" width="54" height="54" rx="16" fill="url(#glow)" />
    <rect x="5.75" y="5.75" width="52.5" height="52.5" rx="15.25" fill="none" stroke="url(#edge)" stroke-width="1.5" />
  </g>
  <path d="M24.5 19.5c-4.4 0-6.4 2.2-6.4 6.2v3.1c0 1.7-.8 2.6-2.5 2.6 1.7 0 2.5.9 2.5 2.6v4.1c0 4 2 6.2 6.4 6.2" fill="none" stroke="url(#mark)" stroke-linecap="round" stroke-linejoin="round" stroke-width="3.6" />
  <path d="M39.5 19.5c4.4 0 6.4 2.2 6.4 6.2v3.1c0 1.7.8 2.6 2.5 2.6-1.7 0-2.5.9-2.5 2.6v4.1c0 4-2 6.2-6.4 6.2" fill="none" stroke="url(#mark)" stroke-linecap="round" stroke-linejoin="round" stroke-width="3.6" />
  <path d="m32 26.5 2 3.1 3.5 1.8-3.5 1.8-2 3.2-2-3.2-3.5-1.8 3.5-1.8 2-3.1Z" fill="#E9FFFA" />
  <circle cx="32" cy="31.4" r="7.8" fill="none" stroke="#BFF9F0" stroke-dasharray="1 4" stroke-linecap="round" stroke-opacity=".38" />
</svg>
